name C:\Users\u0101727\Documents\MyRepositories\upper-imu-dc\Results\main_tracking\Case_64\kinematics.mot
datacolumns 10
datarows 18
range 0.50000000 0.67000000
endheader 
time	clav_prot	clav_elev	scapula_abduction	scapula_elevation	scapula_upward_rot	scapula_winging	plane_elv	shoulder_elv	axial_rot	
          0.50000000	        -23.89627639	         -6.35314067	        -15.16078866	         -5.22298003	         11.20744637	          6.58875724	        -30.12375493	         13.33859281	         45.89756418	
          0.51000000	        -23.83352633	         -6.38838886	        -15.20046480	         -5.23303836	         11.17516862	          6.60552726	        -29.42855131	         13.39400432	         45.33488456	
          0.52000000	        -23.83073456	         -6.41219734	        -15.20766420	         -5.24298113	         11.14402018	          6.62199018	        -28.73232743	         13.45037118	         44.77226152	
          0.53000000	        -23.82476207	         -6.43655701	        -15.20917146	         -5.25320309	         11.11306409	          6.63859231	        -28.03376158	         13.50607574	         44.20951788	
          0.54000000	        -23.81657341	         -6.46161870	        -15.20668750	         -5.26384375	         11.08215853	          6.65543394	        -27.33094499	         13.56062866	         43.64655785	
          0.55000000	        -23.80669977	         -6.48739309	        -15.20108201	         -5.27496414	         11.05137560	          6.67250698	        -26.62158124	         13.61391724	         43.08325314	
          0.56000000	        -23.79588150	         -6.51384733	        -15.19356709	         -5.28661731	         11.02083470	          6.68977843	        -25.90304590	         13.66600876	         42.51923835	
          0.57000000	        -23.78504875	         -6.54094482	        -15.18567761	         -5.29886718	         10.99066242	          6.70721567	        -25.17242035	         13.71712106	         41.95367823	
          0.58000000	        -23.77516257	         -6.56866236	        -15.17899852	         -5.31178999	         10.96098538	          6.72479327	        -24.42650929	         13.76765182	         41.38501920	
          0.59000000	        -23.76698774	         -6.59699972	        -15.17476978	         -5.32546905	         10.93193612	          6.74249232	        -23.66186204	         13.81821364	         40.81077440	
          0.60000000	        -23.76089663	         -6.62598405	        -15.17354393	         -5.33998829	         10.90366153	          6.76029698	        -22.87480669	         13.86965826	         40.22738008	
          0.61000000	        -23.75683696	         -6.65566150	        -15.17513184	         -5.35542417	         10.87632451	          6.77818965	        -22.06150580	         13.92308159	         39.63015537	
          0.62000000	        -23.75445995	         -6.68607909	        -15.17882916	         -5.37183849	         10.85009965	          6.79614620	        -21.21804099	         13.97980294	         39.01339267	
          0.63000000	        -23.75332480	         -6.71726265	        -15.18377551	         -5.38927242	         10.82516712	          6.81413151	        -20.34052795	         14.04131987	         38.37058629	
          0.64000000	        -23.75301793	         -6.74919906	        -15.18916276	         -5.40774025	         10.80171312	          6.83209413	        -19.42525778	         14.10924613	         37.69477886	
          0.65000000	        -23.75316108	         -6.78182414	        -15.19424662	         -5.42722288	         10.77993881	          6.84995959	        -18.46884355	         14.18524354	         36.97897186	
          0.66000000	        -23.75322191	         -6.81502979	        -15.19800837	         -5.44766712	         10.76008142	          6.86762535	        -17.46835141	         14.27096576	         36.21653178	
          0.67000000	        -23.75232429	         -6.84867642	        -15.19881380	         -5.46898954	         10.74243708	          6.88495730	        -16.42139770	         14.36801227	         35.40154571	
